OpenSim_Sub06_CSStiffKnee_RCS.mot
version=1
nRows=55
nColumns=11
inDegrees=no
endheader
time	Top_Thigh	Med_Thigh	Bot_Thigh	Top_Shank	2nd_Top_Shank	2nd_Bot_Shank	Bot_Shank	BNOx	BNOy	BNOZ
0	1719.98977744	1999.53391131	1704.94864773	1280.00000936	1360.04019362	1099.97844280	1180.17556915	64.01992522	-74.55912775	173.94404342
0.01000000	1719.99798797	1999.86367872	1704.97745860	1280.00000459	1360.01968807	1099.99211986	1180.05624279	64.00816108	-74.55970508	173.98082448
0.02000000	1719.99971648	2000.06073492	1705.01711379	1279.99999616	1359.98355633	1100.00498933	1179.97008473	63.99407519	-74.56015956	174.01138669
0.03000000	1719.99434893	2000.11468760	1705.06372014	1279.99998483	1359.93497856	1100.02207992	1179.92002993	63.97820520	-74.56043079	174.03502832
0.04000000	1719.98511685	2000.05163284	1705.10852077	1279.99997314	1359.88491853	1100.05776442	1179.89975367	63.96221596	-74.56054680	174.05219353
0.05000000	1719.97550880	1999.90010532	1705.14243376	1279.99996378	1359.84486021	1100.12704009	1179.90231241	63.94784765	-74.56054153	174.06340310
0.06000000	1719.96901332	1999.68863971	1705.15637718	1279.99995944	1359.82628756	1100.24490420	1179.92076258	63.93684047	-74.56044893	174.06917777
0.07000000	1719.96911896	1999.44577067	1705.14126911	1279.99996280	1359.84068455	1100.42635402	1179.94816063	63.93093459	-74.56030293	174.07003831
0.08000000	1719.97931427	1999.20003288	1705.08802762	1279.99997654	1359.89953514	1100.68638681	1179.97756301	63.93187021	-74.56013748	174.06650548
0.09000000	1720.00308504	1998.97995310	1704.98757571	1280.00000334	1360.01431660	1101.03998677	1180.00202767	63.94138655	-74.55998652	174.05910046
0.10000000	1720.04025592	1998.80355546	1704.83735662	1280.00004244	1360.18761487	1101.48479380	1180.01662229	63.95995913	-74.55987646	174.04891443
0.11000000	1720.07977302	1998.65765695	1704.65418771	1280.00008285	1360.39559660	1101.96691161	1180.02238612	63.98430850	-74.55981138	174.03873219
0.12000000	1720.10857116	1998.52330487	1704.45846828	1280.00011170	1360.60954387	1102.42291568	1180.02146250	64.01046096	-74.55979125	174.03165170
0.13000000	1720.11358515	1998.38154649	1704.27059764	1280.00011609	1360.80073879	1102.78938146	1180.01599472	64.03444283	-74.55981600	174.03077087
0.14000000	1720.08174983	1998.21342911	1704.11097511	1280.00008315	1360.94046347	1103.00288441	1180.00812612	64.05228040	-74.55988560	174.03918766
0.15000000	1720	1998	1704	1280	1361	1103	1180	64.06000000	-74.56000000	174.06000000
0.16000000	1719.86126509	1997.73258923	1703.95122696	1279.99986358	1360.95986943	1102.74151868	1179.99343923	64.05490074	-74.56015232	174.09511514
0.17000000	1719.68245292	1997.44365798	1703.95083201	1279.99971014	1360.83754857	1102.28509083	1179.98898486	64.03937298	-74.56030838	174.14167758
0.18000000	1719.48646588	1997.17595020	1703.97814652	1279.99958572	1360.65975316	1101.71258186	1179.98685746	64.01707992	-74.56042716	174.19564116
0.19000000	1719.29620638	1996.97220986	1704.01250184	1279.99953640	1360.45319895	1101.10585714	1179.98727761	63.99168472	-74.56046765	174.25295968
0.20000000	1719.13457685	1996.87518091	1704.03322934	1279.99960822	1360.24460169	1100.54678205	1179.99046591	63.96685056	-74.56038884	174.30958698
0.21000000	1719.02447967	1996.92760730	1704.01966037	1279.99984725	1360.06067714	1100.11722198	1179.99664294	63.94624064	-74.56014972	174.36147686
0.22000000	1718.98745055	1997.16837465	1703.95296334	1280.00029317	1359.92681677	1099.89450011	1180.00594355	63.93333315	-74.55971525	174.40477007
0.23000000	1719.02457508	1997.57863628	1703.84179424	1280.00089016	1359.84859729	1099.88797490	1180.01722007	63.92883866	-74.55913972	174.43840401
0.24000000	1719.12119634	1998.09510308	1703.71596902	1280.00150889	1359.81634192	1100.05468543	1180.02833744	63.93133717	-74.55854620	174.46346901
0.25000000	1719.26225244	1998.65334272	1703.60584798	1280.00201814	1359.81998150	1100.35032492	1180.03713525	63.93935391	-74.55805955	174.48111074
0.26000000	1719.43268150	1999.18892289	1703.54179140	1280.00228668	1359.84944688	1100.73058661	1180.04145308	63.95141407	-74.55780461	174.49247490
0.27000000	1719.61742164	1999.63741125	1703.55415954	1280.00218329	1359.89466891	1101.15116373	1180.03913050	63.96604286	-74.55790621	174.49870719
0.28000000	1719.80141098	1999.93437548	1703.67331271	1280.00157676	1359.94557843	1101.56774953	1180.02800708	63.98176548	-74.55848920	174.50095330
0.29000000	1719.96958764	2000.01538326	1703.92961117	1280.00033585	1359.99210631	1101.93603723	1180.00592240	63.99710716	-74.55967842	174.50035892
0.30000000	1720.10819851	1999.82699974	1704.34636340	1279.99837419	1360.02527144	1102.21642779	1179.97148158	64.01073212	-74.56155593	174.49798383
0.31000000	1720.21316320	1999.39706820	1704.89476059	1279.99593669	1360.04413423	1102.40411520	1179.92894754	64.02233216	-74.56388748	174.49425301
0.32000000	1720.28473664	1998.78986107	1705.52263482	1279.99341681	1360.05135929	1102.50988777	1179.88511905	64.03205962	-74.56629710	174.48930687
0.33000000	1720.32319421	1998.06982258	1706.17770800	1279.99120867	1360.04962821	1102.54460738	1179.84680686	64.04006899	-74.56840813	174.48328450
0.34000000	1720.32881131	1997.30139699	1706.80770200	1279.98970641	1360.04162262	1102.51913592	1179.82082170	64.04651480	-74.56984390	174.47632497
0.35000000	1720.30186332	1996.54902853	1707.36033873	1279.98930417	1360.03002413	1102.44433525	1179.81397432	64.05155155	-74.57022776	174.46856737
0.36000000	1720.24262562	1995.87716146	1707.78334008	1279.99039608	1360.01751433	1102.33106725	1179.83307545	64.05533375	-74.56918306	174.46015078
0.37000000	1720.15137359	1995.35024001	1708.02442794	1279.99337628	1360.00677485	1102.19019380	1179.88493582	64.05801591	-74.56633314	174.45121427
0.38000000	1720.02838263	1995.03270844	1708.03132421	1279.99863890	1360.00048730	1102.03257679	1179.97636618	64.05975254	-74.56130133	174.44189693
0.39000000	1719.87487453	1994.97816390	1707.76165137	1280.00631510	1360.00079160	1101.86817662	1180.11224245	64.06070086	-74.55380494	174.43232266
0.40000000	1719.69906573	1995.16003689	1707.24620338	1280.01459242	1360.00582432	1101.70029141	1180.28314096	64.06103808	-74.54425559	174.42250319
0.41000000	1719.51230765	1995.51582695	1706.54856990	1280.02078727	1360.01192773	1101.52923319	1180.47322896	64.06095038	-74.53337612	174.41239998
0.42000000	1719.32596652	1995.98286411	1705.73249528	1280.02221195	1360.01543562	1101.35529992	1180.66664346	64.06062399	-74.52189083	174.40197423
0.43000000	1719.15140856	1996.49847845	1704.86172386	1280.01617876	1360.01268178	1101.17878954	1180.84752147	64.06024512	-74.51052402	174.39118716
0.44000000	1719	1997	1704	1280	1360	1101	1181	64.06000000	-74.50000000	174.38000000
0.45000000	1718.88080202	1997.43590739	1703.20016487	1279.97174318	1359.97465254	1100.81953587	1181.11147981	64.06003293	-74.49090683	174.36840443
0.46000000	1718.79365568	1997.79927349	1702.47144694	1279.93249659	1359.93761551	1100.63922816	1181.18241668	64.06032051	-74.48328763	174.35651404
0.47000000	1718.73609699	1998.09431975	1701.81217152	1279.88410376	1359.89079347	1100.46121449	1181.21653011	64.06079744	-74.47704928	174.34447292
0.48000000	1718.70566196	1998.32526761	1701.22066390	1279.82840818	1359.83609098	1100.28763248	1181.21753963	64.06139840	-74.47209864	174.33242513
0.49000000	1718.69988661	1998.49633852	1700.69524938	1279.76725336	1359.77541261	1100.12061976	1181.18916475	64.06205808	-74.46834259	174.32051474
0.50000000	1718.71630695	1998.61175391	1700.23425326	1279.70248281	1359.71066293	1099.96231394	1181.13512500	64.06271116	-74.46568802	174.30888583
0.51000000	1718.75245899	1998.67573523	1699.83600084	1279.63594004	1359.64374649	1099.81485266	1181.05913989	64.06329233	-74.46404180	174.29768247
0.52000000	1718.80587876	1998.69250393	1699.49881741	1279.56946856	1359.57656788	1099.68037352	1180.96492894	64.06373628	-74.46331080	174.28704873
0.53000000	1718.87410226	1998.66628144	1699.22102829	1279.50491187	1359.51103165	1099.56101415	1180.85621168	64.06397769	-74.46340190	174.27712869
0.54000000	1718.95466552	1998.60128921	1699.00095877	1279.44411347	1359.44904236	1099.45891218	1180.73670761	64.06395126	-74.46422198	174.26806642
